<?xml version="1.0" standalone="no"?>
<!DOCTYPE svg PUBLIC "-//W3C//DTD SVG 20010904//EN"
 "http://www.w3.org/TR/2001/REC-SVG-20010904/DTD/svg10.dtd">
<svg version="1.0" xmlns="http://www.w3.org/2000/svg"
 width="640.000000pt" height="480.000000pt" viewBox="0 0 640.000000 480.000000"
 preserveAspectRatio="xMidYMid meet">

<g transform="translate(0.000000,480.000000) scale(0.100000,-0.100000)"
fill="#000000" stroke="none">
<path d="M440 2895 l0 -445 150 0 150 0 0 50 0 50 -115 0 -115 0 0 170 0 170
115 0 115 0 0 50 0 50 -115 0 -115 0 0 125 0 125 115 0 115 0 0 50 0 50 -150
0 -150 0 0 -445z"/>
<path d="M968 3285 l-17 -44 57 -3 57 -3 3 -392 2 -393 30 0 30 0 0 440 0 440
-73 0 -73 0 -16 -45z"/>
<path d="M4360 2813 c-1 -284 -3 -354 -13 -341 -7 10 -23 35 -36 56 -70 115
-237 132 -338 33 -87 -84 -128 -225 -120 -411 9 -197 68 -325 176 -382 122
-64 242 -19 314 117 16 30 16 30 17 -42 l0 -73 50 0 50 0 0 700 0 700 -50 0
-50 0 0 -357z m-161 -333 c106 -30 172 -176 158 -348 -9 -103 -54 -196 -112
-230 -52 -30 -136 -27 -183 7 -120 85 -137 427 -27 531 23 21 86 49 115 50 8
0 31 -4 49 -10z"/>
<path d="M1932 3107 c-50 -16 -118 -81 -148 -144 -39 -79 -45 -203 -15 -300
32 -105 76 -154 211 -235 176 -105 230 -178 230 -307 0 -129 -58 -219 -156
-241 -55 -13 -103 3 -147 48 -34 35 -77 128 -77 167 0 22 -16 19 -67 -16 -43
-30 -44 -33 -38 -68 22 -118 113 -228 213 -257 176 -52 334 59 378 265 27 129
14 244 -39 344 -38 72 -66 97 -203 180 -163 98 -204 150 -204 257 0 76 16 116
65 159 35 30 43 33 87 29 56 -6 105 -45 139 -111 l20 -38 49 42 50 42 -32 59
c-50 94 -124 139 -225 137 -32 -1 -73 -6 -91 -12z"/>
<path d="M4803 3085 c-53 -37 -47 -153 9 -184 82 -46 144 104 73 175 -28 28
-52 30 -82 9z"/>
<path d="M2600 2765 l0 -164 -57 -3 -58 -3 -3 -57 -3 -58 61 0 60 0 0 -355 0
-355 50 0 50 0 0 355 0 355 60 0 61 0 -3 58 -3 57 -57 3 -58 3 0 164 0 165
-50 0 -50 0 0 -165z"/>
<path d="M5445 2621 c-110 -29 -198 -123 -246 -261 -29 -85 -31 -246 -5 -335
32 -110 101 -204 185 -253 39 -23 58 -27 121 -27 92 0 135 19 205 90 87 87
127 195 128 345 1 139 -38 255 -117 347 -63 73 -187 116 -271 94z m146 -154
c82 -55 129 -157 129 -282 0 -209 -133 -355 -275 -301 -179 69 -218 408 -63
552 48 45 67 53 124 54 37 0 60 -6 85 -23z"/>
<path d="M3030 2321 c0 -294 6 -354 44 -435 48 -105 133 -153 255 -144 160 12
232 103 252 320 5 62 9 208 7 323 l-3 210 -52 3 -53 3 0 -230 c0 -337 -20
-440 -92 -477 -40 -21 -115 -21 -155 -1 -76 40 -93 120 -93 455 l0 252 -55 0
-55 0 0 -279z"/>
<path d="M4790 2185 l0 -415 50 0 50 0 0 415 0 415 -50 0 -50 0 0 -415z"/>
</g>
</svg>
